<svg width="24" height="23" viewBox="0 0 24 23" fill="none" xmlns="http://www.w3.org/2000/svg">
<path d="M22.7029 5.5562C22.5117 5.30458 22.3024 5.07327 22.0754 4.85723C22.0142 4.79114 19.2694 2.06134 19.2056 1.99779C17.9887 0.721848 16.2388 0 14.3052 0H5.13705C4.43299 0 3.81312 0.500718 3.66515 1.18952L0.0326038 18.2318C-0.0592305 18.6588 0.0453586 19.0934 0.31576 19.4264C0.374431 19.4975 3.31313 22.4231 3.38201 22.4815C3.6524 22.812 4.05545 23 4.48912 23C4.77481 23 5.05543 22.9161 5.29777 22.7585L11.4685 18.7833H14.3179C18.4632 18.7833 22.583 15.6773 23.6953 11.7097C24.328 9.45775 23.9655 7.2134 22.7004 5.55367L22.7029 5.5562Z" fill="#8000FF"/>
<path d="M14.3051 1.27087H5.13695C5.0349 1.27087 4.93543 1.35221 4.91502 1.45388L3.2722 9.1502C3.25179 9.25188 3.31556 9.3332 3.41761 9.3332C5.34868 9.3332 7.24404 7.77514 7.65473 5.85106L7.85115 4.93604H13.5245C15.2438 4.93604 16.3076 6.41277 15.7642 8.16146C15.2897 9.68397 13.6775 10.7998 12.1419 10.7998H11.749L12.2949 8.24026C12.3281 8.0903 12.1725 8.0039 12.0322 8.09285L6.40478 11.7173L6.87414 9.5162C6.89455 9.41454 6.83078 9.3332 6.72873 9.3332C4.79768 9.3332 2.90231 10.8913 2.49161 12.8154L1.27991 18.4961C1.24675 18.6461 1.40235 18.7325 1.54266 18.6435L8.02972 14.4649H11.2567C14.7795 14.4649 18.4248 11.8216 19.407 8.31905C20.4859 4.47853 18.106 1.27087 14.3051 1.27087Z" fill="#FBF9FF"/>
</svg>
