<svg width="24" height="25" viewBox="0 0 24 25" fill="none" xmlns="http://www.w3.org/2000/svg">
<path d="M19.7814 12.5923H15.837L18.6259 9.81659C18.912 9.53177 19.0726 9.14553 19.0726 8.74281C19.0726 8.34009 18.912 7.95385 18.6259 7.66904C18.3398 7.38432 17.9518 7.22437 17.5473 7.22437C17.1427 7.22437 16.7547 7.38432 16.4686 7.66904L13.6796 10.4453V6.51881C13.6797 6.31939 13.6403 6.1219 13.5637 5.93763C13.4871 5.75336 13.3748 5.58593 13.2331 5.44488C13.0915 5.30384 12.9233 5.19196 12.7383 5.11562C12.5532 5.03929 12.3548 5 12.1545 5C11.7498 5 11.3617 5.16001 11.0756 5.44485C10.7895 5.72968 10.6287 6.116 10.6287 6.51881V10.4453L7.84214 7.66904C7.55603 7.38432 7.16803 7.22437 6.76346 7.22437C6.3589 7.22437 5.97091 7.38432 5.68479 7.66904C5.39877 7.95385 5.23809 8.34009 5.23809 8.74281C5.23809 9.14553 5.39877 9.53177 5.68479 9.81659L8.47375 12.5923H4.52575C4.12109 12.5923 3.73301 12.7523 3.44688 13.0371C3.16075 13.322 3 13.7083 3 14.1111C3 14.5139 3.16075 14.9002 3.44688 15.1851C3.73301 15.4699 4.12109 15.6299 4.52575 15.6299H8.47018L9.99474 14.1111L11.0663 13.048C11.2091 12.9058 11.3786 12.7929 11.5652 12.716C11.7518 12.639 11.9519 12.5994 12.1539 12.5994C12.3559 12.5994 12.5559 12.639 12.7425 12.716C12.9291 12.7929 13.0987 12.9058 13.2415 13.048L14.313 14.1147L15.8388 15.6335H19.7832C20.1879 15.6335 20.5759 15.4735 20.8621 15.1886C21.1482 14.9038 21.3089 14.5175 21.3089 14.1147C21.3094 13.9148 21.2702 13.7167 21.1937 13.5319C21.1171 13.3471 21.0046 13.1792 20.8627 13.0378C20.7208 12.8963 20.5522 12.7842 20.3667 12.7077C20.1811 12.6313 19.9822 12.5921 19.7814 12.5923Z" fill="#FFC24D"/>
<path d="M18.6254 18.4057L14.3107 14.1082L13.2391 13.0451C13.0963 12.9029 12.9268 12.79 12.7402 12.713C12.5536 12.6361 12.3535 12.5964 12.1515 12.5964C11.9495 12.5964 11.7495 12.6361 11.5629 12.713C11.3763 12.79 11.2067 12.9029 11.0639 13.0451L9.99239 14.1082L5.67768 18.4033C5.39159 18.6887 5.23112 19.0756 5.23157 19.4788C5.23201 19.8819 5.39334 20.2684 5.68006 20.5532C5.96677 20.838 6.35539 20.9977 6.76042 20.9973C7.16545 20.9969 7.55371 20.8363 7.8398 20.5509L11.0663 17.339C11.2091 17.1968 11.3786 17.0839 11.5653 17.007C11.7519 16.93 11.9519 16.8904 12.1539 16.8904C12.3559 16.8904 12.5559 16.93 12.7426 17.007C12.9292 17.0839 13.0987 17.1968 13.2415 17.339L16.468 20.5509C16.6087 20.6962 16.7771 20.8122 16.9633 20.892C17.1495 20.9719 17.3498 21.014 17.5526 21.0158C17.7553 21.0177 17.9564 20.9793 18.1441 20.903C18.3318 20.8266 18.5023 20.7138 18.6457 20.5711C18.789 20.4283 18.9024 20.2586 18.9791 20.0718C19.0558 19.8849 19.0944 19.6848 19.0925 19.4829C19.0906 19.2811 19.0483 19.0817 18.9681 18.8963C18.8879 18.7109 18.7714 18.5433 18.6254 18.4033V18.4057Z" fill="#FF6600"/>
</svg>
