<svg width="271" height="57" viewBox="0 0 271 57" fill="none" xmlns="http://www.w3.org/2000/svg">
<path d="M13.1774 42.1179V8.24292H5.21675V42.626C5.21675 47.0975 7.97192 51.761 14.4872 51.761H18.9813V45.0086H15.9325C13.9791 45.0086 13.1774 44.0827 13.1774 42.1179V42.1179Z" fill="#F36B16"/>
<path d="M72.5377 19.6023C68.5517 19.6023 65.7288 20.8331 62.9849 23.656C60.9524 20.9009 58.1295 19.6023 54.5839 19.6023C51.6932 19.6023 48.7913 20.7767 46.7023 22.8656V19.9862H46.6233H43.2245H38.7417V39.2385C38.7417 43.5858 35.9188 45.0425 33.4459 45.0425C30.9166 45.0425 28.1614 43.5858 28.1614 39.2385V19.9862H20.2008V40.3112C20.2008 43.8117 20.8557 46.7475 23.4641 49.3672C25.1917 51.0948 27.8001 52.1901 30.9843 52.1901C33.8863 52.1901 36.856 51.0948 38.945 48.8703V51.7723H43.2922H46.7701H46.9169V32.52C46.9169 28.1727 49.7398 26.7161 52.2014 26.7161C54.742 26.7161 57.4972 28.1727 57.4972 32.52V51.7723H65.4578V32.3619C65.4578 28.2405 68.3485 26.7161 70.7423 26.7161C73.2829 26.7161 76.0268 28.1727 76.0268 32.52V51.7723H83.9874V31.4247C83.9874 27.9356 83.0502 24.9885 80.5096 22.3801C78.5448 20.6299 75.7219 19.6023 72.5377 19.6023V19.6023Z" fill="#F36B16"/>
<path d="M98.8811 19.6023C93.5966 19.6023 90.5592 20.5508 87.4427 24.0399L92.5126 28.9631C94.1725 27.0774 95.5501 26.366 98.5875 26.366C102.788 26.366 104.516 27.8791 104.516 31.3569V32.9491H97.0067C89.622 32.9491 86.1441 37.0705 86.1441 42.1292C86.1441 44.9521 87.0813 47.504 88.7412 49.3107C90.6269 51.1964 93.224 52.1336 96.8599 52.1336C100.541 52.1336 102.506 51.1964 104.662 49.0736V51.8287H112.42V30.894C112.42 23.3737 107.79 19.6023 98.8811 19.6023V19.6023ZM104.459 40.0289C104.459 41.9824 104.177 43.2922 103.296 44.0827C101.919 45.4489 100.473 45.607 98.3053 45.607C95.2 45.607 93.7434 44.1504 93.7434 41.9034C93.7434 39.6789 95.3468 38.29 98.2262 38.29H104.527V40.0289H104.459Z" fill="#F36B16"/>
<path d="M129.707 19.2523C125.8 19.2523 122.605 20.6299 120.222 23.4528V4.34729H116.824V51.761H120.222V31.8425C120.222 25.6885 123.486 22.2897 129.278 22.2897C135.071 22.2897 138.108 25.6885 138.108 31.8425V51.761H141.518V31.2779C141.597 23.8141 137.103 19.2523 129.707 19.2523V19.2523Z" fill="#BCBEC0"/>
<path d="M158.377 19.2523C150.349 19.2523 145.482 25.3385 145.482 35.6817C145.482 46.3975 150.258 52.111 159.167 52.111C164.531 52.111 167.489 50.4512 170.73 47.1879L168.201 45.1441C165.446 47.8992 163.142 48.9832 159.371 48.9832C152.494 48.9832 148.948 44.5005 148.948 36.314H171.238V34.8122C171.261 25.0449 166.496 19.2523 158.377 19.2523V19.2523ZM148.96 33.7169C149.186 30.623 149.4 29.731 150.134 27.6533C151.5 24.2319 154.696 22.2897 158.456 22.2897C162.216 22.2897 165.389 24.3222 166.778 27.6533C167.636 29.6067 167.704 30.623 167.93 33.7169H148.96Z" fill="#BCBEC0"/>
<path d="M186.685 19.2523C181.401 19.2523 178.07 20.4266 175.393 24.198L177.855 26.2983C179.955 23.385 182.202 22.2446 186.685 22.2446C193.268 22.2446 195.741 24.9997 195.741 30.1375V33.7508H185.375C178.363 33.7508 174.163 37.1609 174.163 43.01C174.163 45.3925 174.964 47.7073 176.489 49.2317C178.589 51.3432 181.118 52.1336 185.962 52.1336C190.513 52.1336 192.986 51.2755 195.741 48.5203V51.7045H199.14V29.6971C199.14 23.0237 195.233 19.2523 186.685 19.2523V19.2523ZM195.741 40.5371C195.741 43.4277 195.154 45.528 193.923 46.691C191.608 48.859 188.864 49.1639 185.962 49.1639C180.102 49.1639 177.573 47.1201 177.573 42.9196C177.573 38.5723 180.317 36.4834 185.771 36.4834H195.764L195.741 40.5371Z" fill="#BCBEC0"/>
<path d="M206.75 43.36V4.34729H203.329V43.4277C203.329 48.4977 205.802 51.761 211.098 51.761H214V48.78H211.685C207.891 48.7122 206.75 47.0411 206.75 43.36V43.36Z" fill="#BCBEC0"/>
<path d="M220.199 9.41724H216.8V19.6927H212.362V22.222H216.8V43.36C216.8 48.2154 219.465 51.761 224.546 51.761H227.437V48.78H225.122C221.723 48.78 220.199 46.8152 220.199 43.4164V22.2107H227.437V19.6814H220.199V9.41724Z" fill="#BCBEC0"/>
<path d="M245.244 19.2523C241.325 19.2523 238.153 20.6299 235.77 23.4528V4.34729H232.36V51.761H235.77V31.8425C235.77 25.6885 239.011 22.2897 244.815 22.2897C250.619 22.2897 253.633 25.6885 253.633 31.8425V51.761H257.055V31.2779C257.055 23.8141 252.617 19.2523 245.244 19.2523V19.2523Z" fill="#BCBEC0"/>
<path d="M260.51 4.34729V5.0135H259.212V8.42358H258.421V5.00221H257.123V4.34729H260.51ZM265.004 8.401L264.857 6.00717C264.857 5.72487 264.857 5.2845 264.857 4.84412H264.79C264.699 5.19417 264.564 5.70229 264.417 6.06362L263.706 8.29937H262.825L262.113 5.98458C262.046 5.70229 261.899 5.19417 261.842 4.81025H261.752V5.98458L261.594 8.37842H260.804L261.086 4.25696H262.317L263.028 6.27817C263.096 6.57175 263.175 6.94438 263.299 7.29442C263.389 6.94438 263.536 6.58304 263.581 6.27817L264.304 4.25696H265.467L265.761 8.37842L265.004 8.401Z" fill="#BCBEC0"/>
</svg>
