<svg width="26" height="25" viewBox="0 0 26 25" fill="none" xmlns="http://www.w3.org/2000/svg">
<path fill-rule="evenodd" clip-rule="evenodd" d="M10.738 7.28727C13.9294 5.30007 18.6812 5.65178 21.0039 8.07863C21.0249 8.10295 21.0458 8.12718 21.0662 8.15132L15.9507 9.55584L17.0323 10.6286L13.3975 14.1282L11.4295 12.1761L6.60681 16.9595L4.12455 14.5854L1.35861 18.9291L4.35504 16.7133L6.83729 19.0522L11.5713 14.515L13.5039 16.4671L18.4508 12.0354L19.5322 13.0906L21.072 8.15806C22.4247 9.75494 22.4933 10.9806 22.4933 10.9979C22.7769 13.2489 21.3762 14.8316 21.3762 14.8316C22.0499 14.6557 22.9364 13.4599 23.1138 12.7916C23.1138 12.7916 25.5961 13.1961 25.4541 16.344C25.3123 19.4918 22.316 19.826 22.0677 19.826H10.738H4.05363C3.43306 19.8084 2.10328 19.4391 1.35861 18.9467C0.578475 18.3663 -0.0952784 17.364 0.0111035 15.9043C0.241598 12.9323 3.04301 12.6861 3.59264 12.6685C3.73448 12.6685 3.89407 12.6685 4.05363 12.7213C4.53235 12.8444 4.83377 13.1609 4.83377 13.1609C4.83377 13.1609 4.56782 12.6685 3.94724 12.352C3.86173 12.3096 3.76478 12.2785 3.67478 12.2497C3.6528 12.2427 3.63125 12.2358 3.61037 12.2289C3.71676 11.0506 4.40823 9.02826 7.4224 8.11379C9.28408 7.55106 10.2593 8.25448 10.738 8.86999C11.0217 9.2393 11.128 9.57343 11.128 9.57343C11.1812 9.20411 11.0039 8.74688 10.738 8.39517C10.5252 8.1138 10.2593 7.90277 9.97558 7.81483C10.2238 7.6214 10.472 7.44554 10.738 7.28727Z" fill="#0E95CC"/>
</svg>
