<svg width="32" height="32" viewBox="0 0 32 32" fill="none" xmlns="http://www.w3.org/2000/svg">
<g clip-path="url(#clip0_5137_3827)">
<path d="M16 0C7.1625 0 0 7.1625 0 16C0 24.8375 7.1625 32 16 32C24.8375 32 32 24.8375 32 16C32 7.1625 24.8375 0 16 0ZM23.2375 13.2375L15.2375 21.2375C14.8938 21.5812 14.45 21.75 14 21.75C13.55 21.75 13.1038 21.5801 12.7619 21.2383L8.76188 17.2383C8.08 16.5545 8.08 15.4451 8.76188 14.7614C9.44563 14.0776 10.555 14.0776 11.2388 14.7614L14 17.525L20.7625 10.7625C21.4463 10.0787 22.5556 10.0787 23.2394 10.7625C23.9187 11.4437 23.9187 12.5563 23.2375 13.2375Z" fill="#5E9A29"/>
</g>
<defs>
<clipPath id="clip0_5137_3827">
<rect width="32" height="32" fill="white"/>
</clipPath>
</defs>
</svg>
