<svg width="24" height="25" viewBox="0 0 24 25" fill="none" xmlns="http://www.w3.org/2000/svg">
<path d="M5.66025 6.64412C6.49391 5.80585 7.48371 5.14088 8.57309 4.6872C9.66247 4.23352 10.8301 4 12.0093 4C13.1884 4 14.3561 4.23352 15.4454 4.6872C16.5348 5.14088 17.5246 5.80585 18.3583 6.64412C19.1951 7.47512 19.8595 8.46482 20.313 9.55586C20.7665 10.6469 21 11.8176 21 13C21 14.1824 20.7665 15.3531 20.313 16.4441C19.8595 17.5352 19.1951 18.5249 18.3583 19.3559C17.5246 20.1942 16.5348 20.8591 15.4454 21.3128C14.3561 21.7665 13.1884 22 12.0093 22C10.8301 22 9.66247 21.7665 8.57309 21.3128C7.48371 20.8591 6.49391 20.1942 5.66025 19.3559C4.8181 18.5279 4.14897 17.5392 3.69215 16.4478C3.23532 15.3563 3 14.1841 3 13C3 11.8159 3.23532 10.6437 3.69215 9.55226C4.14897 8.46081 4.8181 7.47209 5.66025 6.64412V6.64412ZM8.68444 16.4232C9.11317 16.8728 9.62795 17.2306 10.1978 17.475C10.7677 17.7195 11.3809 17.8455 12.0005 17.8455C12.6201 17.8455 13.2332 17.7195 13.8031 17.475C14.373 17.2306 14.8878 16.8728 15.3165 16.4232C16.1822 15.4972 16.6641 14.2743 16.6641 13.0036C16.6641 11.733 16.1822 10.5101 15.3165 9.58408C14.8878 9.13446 14.373 8.77667 13.8031 8.53225C13.2332 8.28782 12.6201 8.16182 12.0005 8.16182C11.3809 8.16182 10.7677 8.28782 10.1978 8.53225C9.62795 8.77667 9.11317 9.13446 8.68444 9.58408C7.81878 10.5101 7.33685 11.733 7.33685 13.0036C7.33685 14.2743 7.81878 15.4972 8.68444 16.4232V16.4232Z" fill="#7E5BEF"/>
<path d="M9.87626 10.871C10.4443 10.3057 11.2073 9.9927 11.9994 10.0001C12.7908 9.99714 13.5522 10.3095 14.1226 10.871C14.4005 11.1503 14.6211 11.4834 14.7718 11.851C14.9224 12.2186 15 12.6132 15 13.0118C15 13.4105 14.9224 13.8051 14.7718 14.1727C14.6211 14.5403 14.4005 14.8734 14.1226 15.1527C13.5496 15.7073 12.7879 16.011 11.9994 15.9994C11.2103 16.0152 10.4471 15.7108 9.87626 15.1527C9.59876 14.8733 9.37836 14.54 9.22792 14.1725C9.07748 13.8049 9 13.4104 9 13.0118C9 12.6133 9.07748 12.2188 9.22792 11.8512C9.37836 11.4837 9.59876 11.1504 9.87626 10.871V10.871Z" fill="#F2711C"/>
</svg>
